<svg width="212" height="148" viewBox="0 0 212 148" fill="none" xmlns="http://www.w3.org/2000/svg">
<path d="M131.17 -10.5994L141.804 -33.4044L164.609 -22.7703L153.975 0.0346842L131.17 -10.5994Z" stroke="#DBDFE9" stroke-width="0.22875"/>
<path d="M153.767 -0.0620947L164.401 -22.8671L187.206 -12.2329L176.572 10.572L153.767 -0.0620947Z" stroke="#DBDFE9" stroke-width="0.22875"/>
<path d="M176.365 10.4754L186.999 -12.3296L209.804 -1.69546L199.17 21.1095L176.365 10.4754Z" stroke="#DBDFE9" stroke-width="0.22875"/>
<path d="M198.963 21.0129L209.597 -1.79211L232.402 8.84202L221.768 31.647L198.963 21.0129Z" stroke="#DBDFE9" stroke-width="0.22875"/>
<path d="M75.4369 -9.07674L86.071 -31.8817L108.876 -21.2476L98.2419 1.55739L75.4369 -9.07674Z" stroke="#DBDFE9" stroke-width="0.22875"/>
<path d="M98.0346 1.46073L108.669 -21.3442L131.474 -10.7101L120.84 12.0949L98.0346 1.46073Z" stroke="#DBDFE9" stroke-width="0.22875"/>
<path d="M120.632 11.9982L131.266 -10.8068L154.071 -0.17263L143.437 22.6323L120.632 11.9982Z" stroke="#DBDFE9" stroke-width="0.22875"/>
<path d="M143.23 22.5356L153.864 -0.269409L176.669 10.3647L166.035 33.1697L143.23 22.5356Z" stroke="#DBDFE9" stroke-width="0.22875"/>
<path d="M165.828 33.073L176.462 10.2681L199.267 20.9022L188.633 43.7072L165.828 33.073Z" stroke="#DBDFE9" stroke-width="0.22875"/>
<path d="M188.425 43.6105L199.059 20.8055L221.864 31.4397L211.23 54.2446L188.425 43.6105Z" stroke="#DBDFE9" stroke-width="0.22875"/>
<path d="M211.023 54.148L221.657 31.343L244.462 41.9771L233.828 64.7821L211.023 54.148Z" stroke="#DBDFE9" stroke-width="0.22875"/>
<path d="M42.3018 2.98344L52.9359 -19.8215L75.7409 -9.1874L65.1068 13.6176L42.3018 2.98344Z" stroke="#DBDFE9" stroke-width="0.22875"/>
<path d="M64.8994 13.5209L75.5336 -9.28406L98.3385 1.35007L87.7044 24.155L64.8994 13.5209Z" stroke="#DBDFE9" stroke-width="0.22875"/>
<path d="M87.4971 24.0584L98.1312 1.25342L120.936 11.8876L110.302 34.6925L87.4971 24.0584Z" stroke="#DBDFE9" stroke-width="0.22875"/>
<path d="M110.095 34.5959L120.729 11.7909L143.534 22.425L132.9 45.23L110.095 34.5959Z" stroke="#DBDFE9" stroke-width="0.22875"/>
<path d="M132.692 45.1332L143.327 22.3282L166.132 32.9624L155.497 55.7674L132.692 45.1332Z" stroke="#DBDFE9" stroke-width="0.22875"/>
<path d="M155.29 55.6707L165.924 32.8657L188.729 43.4999L178.095 66.3048L155.29 55.6707Z" stroke="#DBDFE9" stroke-width="0.22875"/>
<path d="M177.888 66.2082L188.522 43.4032L211.327 54.0373L200.693 76.8423L177.888 66.2082Z" stroke="#DBDFE9" stroke-width="0.22875"/>
<path d="M200.485 76.7456L211.12 53.9407L233.924 64.5748L223.29 87.3798L200.485 76.7456Z" stroke="#DBDFE9" stroke-width="0.22875"/>
<path d="M124.776 13.9319L154.526 27.8046" stroke="url(#paint0_linear_109_542)" stroke-width="0.4575"/>
<path d="M31.7643 25.5811L42.3984 2.77612L65.2034 13.4103L54.5693 36.2152L31.7643 25.5811Z" stroke="#DBDFE9" stroke-width="0.22875"/>
<path d="M54.362 36.1186L64.9961 13.3136L87.8011 23.9477L77.1669 46.7527L54.362 36.1186Z" stroke="#DBDFE9" stroke-width="0.22875"/>
<path d="M76.9596 46.656L87.5938 23.8511L110.399 34.4852L99.7646 57.2902L76.9596 46.656Z" stroke="#DBDFE9" stroke-width="0.22875"/>
<path d="M99.5573 57.1935L110.191 34.3885L132.996 45.0227L122.362 67.8277L99.5573 57.1935Z" stroke="#DBDFE9" stroke-width="0.22875"/>
<path d="M122.155 67.7309L132.789 44.9259L155.594 55.56L144.96 78.365L122.155 67.7309Z" stroke="#DBDFE9" stroke-width="0.22875"/>
<path d="M144.753 78.2683L155.387 55.4634L178.192 66.0975L167.558 88.9025L144.753 78.2683Z" stroke="#DBDFE9" stroke-width="0.22875"/>
<path d="M167.35 88.8058L177.984 66.0009L200.789 76.635L190.155 99.44L167.35 88.8058Z" stroke="#DBDFE9" stroke-width="0.22875"/>
<path d="M189.948 99.3433L200.582 76.5383L223.387 87.1725L212.753 109.977L189.948 99.3433Z" stroke="#DBDFE9" stroke-width="0.22875"/>
<path d="M108.539 33.8708L78.7889 19.9981" stroke="url(#paint1_linear_109_542)" stroke-width="0.4575"/>
<path d="M21.227 48.1788L31.8611 25.3738L54.6661 36.0079L44.0319 58.8129L21.227 48.1788Z" stroke="#DBDFE9" stroke-width="0.22875"/>
<path d="M43.8246 58.7162L54.4587 35.9113L77.2637 46.5454L66.6296 69.3504L43.8246 58.7162Z" stroke="#DBDFE9" stroke-width="0.22875"/>
<path d="M66.4223 69.2537L77.0564 46.4487L99.8614 57.0829L89.2272 79.8878L66.4223 69.2537Z" stroke="#DBDFE9" stroke-width="0.22875"/>
<path d="M89.0199 79.7912L99.6541 56.9862L122.459 67.6203L111.825 90.4253L89.0199 79.7912Z" stroke="#DBDFE9" stroke-width="0.22875"/>
<path d="M111.618 90.3285L122.252 67.5236L145.057 78.1577L134.423 100.963L111.618 90.3285Z" stroke="#DBDFE9" stroke-width="0.22875"/>
<path d="M134.215 100.866L144.849 78.061L167.654 88.6952L157.02 111.5L134.215 100.866Z" stroke="#DBDFE9" stroke-width="0.22875"/>
<path d="M156.813 111.403L167.447 88.5985L190.252 99.2326L179.618 122.038L156.813 111.403Z" stroke="#DBDFE9" stroke-width="0.22875"/>
<path d="M179.411 121.941L190.045 99.136L212.85 109.77L202.216 132.575L179.411 121.941Z" stroke="#DBDFE9" stroke-width="0.22875"/>
<path d="M137.701 74.9822L167.451 88.8549" stroke="url(#paint2_linear_109_542)" stroke-width="0.4575"/>
<path d="M10.6895 70.7764L21.3236 47.9714L44.1286 58.6056L33.4944 81.4105L10.6895 70.7764Z" stroke="#DBDFE9" stroke-width="0.22875"/>
<path d="M33.2873 81.3138L43.9214 58.5088L66.7264 69.1429L56.0922 91.9479L33.2873 81.3138Z" stroke="#DBDFE9" stroke-width="0.22875"/>
<path d="M55.8848 91.8514L66.5189 69.0464L89.3239 79.6805L78.6898 102.485L55.8848 91.8514Z" stroke="#DBDFE9" stroke-width="0.22875"/>
<path d="M78.4824 102.389L89.1166 79.5839L111.922 90.218L101.287 113.023L78.4824 102.389Z" stroke="#DBDFE9" stroke-width="0.22875"/>
<path d="M101.08 112.926L111.714 90.1212L134.519 100.755L123.885 123.56L101.08 112.926Z" stroke="#DBDFE9" stroke-width="0.22875"/>
<path d="M123.678 123.464L134.312 100.659L157.117 111.293L146.483 134.098L123.678 123.464Z" stroke="#DBDFE9" stroke-width="0.22875"/>
<path d="M146.275 134.001L156.91 111.196L179.715 121.83L169.08 144.635L146.275 134.001Z" stroke="#DBDFE9" stroke-width="0.22875"/>
<path d="M168.873 144.539L179.507 121.734L202.312 132.368L191.678 155.173L168.873 144.539Z" stroke="#DBDFE9" stroke-width="0.22875"/>
<path d="M0.152 93.3741L10.7861 70.5691L33.5911 81.2032L22.957 104.008L0.152 93.3741Z" stroke="#DBDFE9" stroke-width="0.22875"/>
<path d="M22.7497 103.912L33.3838 81.1066L56.1888 91.7407L45.5546 114.546L22.7497 103.912Z" stroke="#DBDFE9" stroke-width="0.22875"/>
<path d="M45.3473 114.449L55.9814 91.644L78.7864 102.278L68.1523 125.083L45.3473 114.449Z" stroke="#DBDFE9" stroke-width="0.22875"/>
<path d="M67.945 124.986L78.5791 102.182L101.384 112.816L90.7499 135.621L67.945 124.986Z" stroke="#DBDFE9" stroke-width="0.22875"/>
<path d="M90.5426 135.524L101.177 112.719L123.982 123.353L113.348 146.158L90.5426 135.524Z" stroke="#DBDFE9" stroke-width="0.22875"/>
<path d="M113.14 146.061L123.774 123.256L146.579 133.89L135.945 156.695L113.14 146.061Z" stroke="#DBDFE9" stroke-width="0.22875"/>
<path d="M135.738 156.599L146.372 133.794L169.177 144.428L158.543 167.233L135.738 156.599Z" stroke="#DBDFE9" stroke-width="0.22875"/>
<path d="M158.336 167.136L168.97 144.331L191.775 154.965L181.141 177.77L158.336 167.136Z" stroke="#DBDFE9" stroke-width="0.22875"/>
<path d="M102.478 113.378L72.7274 99.505" stroke="url(#paint3_linear_109_542)" stroke-width="0.4575"/>
<defs>
<linearGradient id="paint0_linear_109_542" x1="155.148" y1="28.0947" x2="124.776" y2="13.932" gradientUnits="userSpaceOnUse">
<stop stop-color="#00D46A"/>
<stop offset="1" stop-color="#00D46A" stop-opacity="0"/>
</linearGradient>
<linearGradient id="paint1_linear_109_542" x1="78.789" y1="19.998" x2="109.99" y2="34.5474" gradientUnits="userSpaceOnUse">
<stop stop-color="#F8285A"/>
<stop offset="1" stop-color="#F8285A" stop-opacity="0"/>
</linearGradient>
<linearGradient id="paint2_linear_109_542" x1="168.073" y1="89.145" x2="137.701" y2="74.9823" gradientUnits="userSpaceOnUse">
<stop stop-color="#00D46A"/>
<stop offset="1" stop-color="#00D46A" stop-opacity="0"/>
</linearGradient>
<linearGradient id="paint3_linear_109_542" x1="72.7275" y1="99.5048" x2="103.929" y2="114.054" gradientUnits="userSpaceOnUse">
<stop stop-color="#F8285A"/>
<stop offset="1" stop-color="#F8285A" stop-opacity="0"/>
</linearGradient>
</defs>
</svg>
