<svg width="128" height="32" viewBox="0 0 128 32" fill="none" xmlns="http://www.w3.org/2000/svg">
<path d="M95.1731 27.7639C94.8197 27.7639 94.4826 27.6936 94.1617 27.5529C93.841 27.4089 93.5612 27.2076 93.3223 26.949C93.0865 26.6904 92.918 26.386 92.8166 26.0358L94.1126 25.6921C94.1814 25.9507 94.3156 26.1519 94.5153 26.2959C94.7182 26.4368 94.9375 26.5071 95.1731 26.5071C95.376 26.5071 95.561 26.458 95.7279 26.3598C95.8981 26.2616 96.0323 26.1291 96.1305 25.9621C96.232 25.7952 96.2826 25.6103 96.2826 25.4074C96.2826 25.103 96.178 24.8427 95.9685 24.6267C95.7623 24.4075 95.4972 24.2978 95.1731 24.2978C95.0749 24.2978 94.98 24.3126 94.8884 24.342C94.7967 24.3681 94.7084 24.4059 94.6233 24.455L94.0243 23.4042L96.2729 21.5387L96.3711 21.8234H93.0916V20.5666H97.5101V21.8234L95.7623 23.5123L95.7524 23.1392C96.1583 23.2013 96.5004 23.3438 96.7785 23.5663C97.06 23.7855 97.2728 24.0573 97.4168 24.3813C97.5641 24.702 97.6378 25.044 97.6378 25.4074C97.6378 25.8525 97.5248 26.2534 97.2989 26.6102C97.0731 26.9637 96.7736 27.2452 96.4005 27.4547C96.0274 27.6608 95.6183 27.7639 95.1731 27.7639Z" fill="#16A34A"/>
<path d="M101.377 27.7836C100.909 27.7836 100.488 27.6739 100.115 27.4547C99.7455 27.2353 99.4525 26.9309 99.2365 26.5414C99.0205 26.1488 98.9125 25.6954 98.9125 25.1816V23.1294C98.9125 22.5729 99.0205 22.0934 99.2365 21.6909C99.4525 21.285 99.7569 20.974 100.15 20.7581C100.542 20.5387 101.004 20.4291 101.534 20.4291C101.878 20.4291 102.205 20.4799 102.516 20.5813C102.827 20.6827 103.112 20.8546 103.37 21.0968L102.418 22.0492C102.3 21.9315 102.164 21.8398 102.01 21.7743C101.856 21.7088 101.698 21.6761 101.534 21.6761C101.279 21.6761 101.056 21.7367 100.866 21.8578C100.68 21.9756 100.534 22.1311 100.43 22.3242C100.328 22.5141 100.277 22.7169 100.277 22.933V23.9836L100.051 23.7381C100.254 23.532 100.488 23.3748 100.753 23.2668C101.022 23.1555 101.298 23.0998 101.583 23.0998C102.028 23.0998 102.42 23.1998 102.757 23.3993C103.097 23.599 103.362 23.8724 103.552 24.2192C103.745 24.5662 103.842 24.9622 103.842 25.4074C103.842 25.8525 103.729 26.2551 103.503 26.6151C103.277 26.9718 102.978 27.2567 102.604 27.4694C102.231 27.6789 101.822 27.7836 101.377 27.7836ZM101.377 26.5071C101.58 26.5071 101.765 26.458 101.932 26.3598C102.102 26.2616 102.236 26.1291 102.334 25.9621C102.436 25.7952 102.487 25.6103 102.487 25.4074C102.487 25.2044 102.437 25.0195 102.339 24.8526C102.241 24.6824 102.109 24.5482 101.942 24.4501C101.775 24.3486 101.59 24.2978 101.387 24.2978C101.184 24.2978 100.997 24.3486 100.827 24.4501C100.66 24.5482 100.526 24.6824 100.425 24.8526C100.326 25.0195 100.277 25.2044 100.277 25.4074C100.277 25.6038 100.326 25.7854 100.425 25.9524C100.523 26.1192 100.655 26.2534 100.822 26.3549C100.989 26.4564 101.174 26.5071 101.377 26.5071Z" fill="#16A34A"/>
<path d="M107.642 27.7836C107.119 27.7836 106.661 27.6739 106.268 27.4547C105.875 27.2353 105.569 26.9293 105.35 26.5365C105.13 26.1438 105.021 25.6856 105.021 25.1619V23.041C105.021 22.5173 105.13 22.0591 105.35 21.6663C105.569 21.2735 105.875 20.9676 106.268 20.7482C106.661 20.529 107.119 20.4193 107.642 20.4193C108.166 20.4193 108.624 20.529 109.017 20.7482C109.41 20.9676 109.716 21.2735 109.935 21.6663C110.155 22.0591 110.264 22.5173 110.264 23.041V25.1619C110.264 25.6856 110.155 26.1438 109.935 26.5365C109.716 26.9293 109.41 27.2353 109.017 27.4547C108.624 27.6739 108.166 27.7836 107.642 27.7836ZM107.642 26.5169C107.878 26.5169 108.091 26.4613 108.281 26.35C108.47 26.2388 108.621 26.0882 108.732 25.8984C108.844 25.7085 108.899 25.4957 108.899 25.2601V22.933C108.899 22.6973 108.844 22.4845 108.732 22.2947C108.621 22.1049 108.47 21.9543 108.281 21.8431C108.091 21.7318 107.878 21.6761 107.642 21.6761C107.407 21.6761 107.194 21.7318 107.004 21.8431C106.814 21.9543 106.664 22.1049 106.553 22.2947C106.441 22.4845 106.386 22.6973 106.386 22.933V25.2601C106.386 25.4957 106.441 25.7085 106.553 25.8984C106.664 26.0882 106.814 26.2388 107.004 26.35C107.194 26.4613 107.407 26.5169 107.642 26.5169Z" fill="#16A34A"/>
<path d="M53.7791 17.1972V4.20656H55.3849V17.1972H53.7791Z" fill="#1E1E1E"/>
<path d="M65.0291 17.1972V12.3167C65.0291 11.8536 64.987 11.4085 64.9028 10.9815C64.8247 10.5545 64.6834 10.1726 64.4789 9.83582C64.2804 9.49302 64.0098 9.22238 63.6669 9.02391C63.3302 8.82544 62.9031 8.7262 62.386 8.7262C61.983 8.7262 61.6161 8.79537 61.2854 8.9337C60.9606 9.06602 60.6809 9.2705 60.4463 9.54714C60.2118 9.82379 60.0283 10.1726 59.8961 10.5936C59.7698 11.0086 59.7066 11.4987 59.7066 12.0641L58.6511 11.7393C58.6511 10.7951 58.8195 9.98617 59.1563 9.31259C59.4991 8.63299 59.9773 8.11277 60.5907 7.75191C61.2101 7.38505 61.9378 7.20161 62.7739 7.20161C63.4053 7.20161 63.9436 7.30085 64.3886 7.49932C64.8337 7.69778 65.2035 7.96241 65.4983 8.29319C65.793 8.61795 66.0245 8.98482 66.1929 9.39378C66.3613 9.79674 66.4785 10.2087 66.5447 10.6297C66.6169 11.0447 66.6529 11.4386 66.6529 11.8115V17.1972H65.0291ZM58.0828 17.1972V7.45422H59.5262V10.0614H59.7066V17.1972H58.0828Z" fill="#1E1E1E"/>
<path d="M72.679 17.4588C71.5183 17.4588 70.565 17.2062 69.8192 16.7011C69.0796 16.1898 68.6255 15.4771 68.457 14.5629L70.0989 14.3013C70.2312 14.8307 70.535 15.2515 71.0101 15.5643C71.4852 15.871 72.0746 16.0244 72.7783 16.0244C73.4459 16.0244 73.9691 15.886 74.348 15.6094C74.7268 15.3328 74.9163 14.9569 74.9163 14.4818C74.9163 14.2052 74.8531 13.9827 74.7268 13.8142C74.6005 13.6398 74.3389 13.4774 73.942 13.327C73.551 13.1767 72.9586 12.9963 72.1648 12.7858C71.3048 12.5572 70.6281 12.3196 70.135 12.0731C69.6419 11.8265 69.29 11.5409 69.0796 11.2161C68.869 10.8913 68.7637 10.4974 68.7637 10.0343C68.7637 9.46296 68.9202 8.96379 69.2328 8.53677C69.5456 8.10376 69.9817 7.76997 70.5409 7.53542C71.1063 7.30086 71.7618 7.18359 72.5076 7.18359C73.2474 7.18359 73.9089 7.30086 74.4923 7.53542C75.0757 7.76997 75.5448 8.10376 75.8996 8.53677C76.2604 8.96379 76.474 9.46296 76.5401 10.0343L74.8982 10.332C74.82 9.80877 74.5674 9.3968 74.1405 9.0961C73.7194 8.79538 73.1752 8.63601 72.5076 8.61797C71.8761 8.59391 71.3619 8.70517 70.965 8.95176C70.574 9.19834 70.3786 9.53212 70.3786 9.95311C70.3786 10.1877 70.4508 10.3891 70.595 10.5575C70.7454 10.7259 71.0191 10.8853 71.4161 11.0357C71.819 11.186 72.4023 11.3574 73.1662 11.5499C74.0261 11.7664 74.7028 12.0039 75.196 12.2626C75.6951 12.5152 76.0499 12.8159 76.2604 13.1647C76.471 13.5075 76.5762 13.9315 76.5762 14.4366C76.5762 15.3749 76.2303 16.1147 75.5388 16.6559C74.8471 17.1912 73.8939 17.4588 72.679 17.4588Z" fill="#1E1E1E"/>
<path d="M78.7461 5.73115V4.07124H80.352V5.73115H78.7461ZM78.7461 17.1972V7.45422H80.352V17.1972H78.7461Z" fill="#1E1E1E"/>
<path d="M87.001 21.798C86.4898 21.798 85.9906 21.7198 85.5035 21.5635C85.0163 21.4071 84.5683 21.1696 84.1593 20.8508C83.7563 20.538 83.4195 20.1411 83.1489 19.66L84.6193 18.8842C84.86 19.3593 85.1997 19.705 85.6387 19.9216C86.0838 20.1381 86.5409 20.2464 87.0099 20.2464C87.6294 20.2464 88.1436 20.1322 88.5527 19.9035C88.9616 19.681 89.2623 19.3473 89.4548 18.9022C89.6532 18.4572 89.7495 17.9039 89.7434 17.2423V14.581H89.9329V7.45422H91.3583V17.2603C91.3583 17.525 91.3492 17.7805 91.3312 18.0271C91.3192 18.2737 91.289 18.5173 91.2409 18.7579C91.1146 19.4495 90.8651 20.0178 90.4922 20.4629C90.1193 20.914 89.6382 21.2478 89.0488 21.4642C88.4593 21.6867 87.7768 21.798 87.001 21.798ZM86.8836 17.4678C85.9756 17.4678 85.1967 17.2423 84.5472 16.7912C83.8976 16.3342 83.3955 15.7177 83.0406 14.9418C82.6918 14.166 82.5174 13.291 82.5174 12.3167C82.5174 11.3424 82.6918 10.4673 83.0406 9.69149C83.3955 8.91567 83.8976 8.30522 84.5472 7.86018C85.1967 7.40911 85.9725 7.18359 86.8746 7.18359C87.7948 7.18359 88.5677 7.40611 89.1931 7.85115C89.8186 8.2962 90.2907 8.90664 90.6095 9.68247C90.9342 10.4583 91.0967 11.3364 91.0967 12.3167C91.0967 13.285 90.9342 14.16 90.6095 14.9418C90.2907 15.7177 89.8186 16.3342 89.1931 16.7912C88.5677 17.2423 87.7978 17.4678 86.8836 17.4678ZM87.0821 15.9973C87.7378 15.9973 88.276 15.841 88.697 15.5282C89.1179 15.2095 89.4277 14.7735 89.6261 14.2202C89.8306 13.6608 89.9329 13.0263 89.9329 12.3167C89.9329 11.595 89.8306 10.9605 89.6261 10.4132C89.4277 9.85989 89.121 9.42988 88.7059 9.12315C88.291 8.81041 87.7647 8.65405 87.1273 8.65405C86.4657 8.65405 85.9184 8.81643 85.4854 9.14119C85.0584 9.46596 84.7396 9.90499 84.5291 10.4583C84.3246 11.0116 84.2224 11.6311 84.2224 12.3167C84.2224 13.0082 84.3277 13.6338 84.5381 14.1931C84.7487 14.7464 85.0644 15.1855 85.4854 15.5102C85.9124 15.835 86.4447 15.9973 87.0821 15.9973Z" fill="#1E1E1E"/>
<path d="M100.815 17.1972V12.3167C100.815 11.8536 100.773 11.4085 100.688 10.9815C100.61 10.5545 100.469 10.1726 100.264 9.83582C100.066 9.49302 99.7953 9.22237 99.4525 9.02391C99.1157 8.82544 98.6887 8.7262 98.1715 8.7262C97.7686 8.7262 97.4017 8.79537 97.0709 8.9337C96.7461 9.06601 96.4665 9.27048 96.2319 9.54714C95.9973 9.82379 95.8139 10.1726 95.6816 10.5936C95.5553 11.0086 95.4922 11.4987 95.4922 12.0641L94.4367 11.7393C94.4367 10.7951 94.6051 9.98617 94.9418 9.31259C95.2847 8.63299 95.7628 8.11276 96.3762 7.75191C96.9957 7.38505 97.7234 7.20161 98.5594 7.20161C99.1909 7.20161 99.7291 7.30085 100.174 7.49932C100.619 7.69778 100.989 7.96241 101.284 8.29319C101.579 8.61795 101.81 8.98482 101.978 9.39378C102.147 9.79673 102.264 10.2087 102.33 10.6297C102.402 11.0447 102.438 11.4386 102.438 11.8115V17.1972H100.815ZM93.8683 17.1972V4.20656H95.3118V11.3785H95.4922V17.1972H93.8683Z" fill="#1E1E1E"/>
<path d="M110.224 17.1972C109.646 17.3114 109.075 17.3566 108.51 17.3325C107.95 17.3144 107.451 17.2032 107.012 16.9987C106.573 16.7882 106.239 16.4634 106.011 16.0244C105.818 15.6395 105.713 15.2515 105.695 14.8607C105.683 14.4638 105.677 14.0156 105.677 13.5165V4.74784H107.283V13.4443C107.283 13.8412 107.286 14.181 107.292 14.4638C107.304 14.7464 107.367 14.9899 107.481 15.1945C107.698 15.5794 108.041 15.8049 108.51 15.871C108.985 15.9372 109.556 15.9191 110.224 15.8169V17.1972ZM103.701 8.78034V7.45422H110.224V8.78034H103.701Z" fill="#1E1E1E"/>
<path d="M28.2888 0H17.6488V10.6399H28.2888V0Z" fill="#16A34A"/>
<path d="M49.5698 10.6399V31.9185H38.93V16.0964C38.9313 16.0511 38.9313 16.0059 38.9313 15.9593C38.9313 15.9128 38.9313 15.8675 38.93 15.8222C38.8583 13.0021 36.5916 10.7255 33.7742 10.6399C33.7201 10.6386 33.6647 10.6374 33.6093 10.6374C33.554 10.6374 33.4986 10.6387 33.4445 10.6399C31.3566 10.7041 29.5717 11.9707 28.7579 13.7694C28.4749 14.3983 28.3089 15.0914 28.29 15.8222V16.0964C28.2887 16.0511 28.2887 16.0059 28.2887 15.9593V21.2799H28.29V31.9185H17.6501V21.2799L28.2887 10.6399C28.2887 10.7054 28.2887 10.772 28.29 10.8374V10.6399L38.9287 0C44.8053 0 49.5686 4.76338 49.5686 10.6399H49.5698Z" fill="#16A34A"/>
</svg>
